# xmcd
#
# Track frame offsets:
#	150
#	16245
#	30882
#	44340
#	58817
#	72055
#	86772
#	100490
#	117045
#	132207
#	147327
#	161995
#	179207
#
# Disc length: 2520 seconds
#
# Revision: 1
# Processed by: cddbd v1.5.2PL0 Copyright (c) Steve Scherf et al.
# Submitted via: audiograbber 1.83.01
#
DISCID=b609d60d
DTITLE=Various Artist - Country Love Songs--Duets
DYEAR=2004
DGENRE=Country
TTITLE0=Shelby Lynne - Les Taylor - The Very First Lasting Love
TTITLE1=Charlie Rich - Janie Fricke - On My Knees
TTITLE2=Johnny Cash - June Carter Cash - If I Were A Carpenter
TTITLE3=David Houston - Barbara Mandrell - I Love You, I Love You
TTITLE4=Charly McClain - Mickey Gilley - Paradise Tonight
TTITLE5=Johnny Duncan - Janie Fricke - He's Out Of My Life
TTITLE6=George Jones - Tammy Wynette - Golden Ring
TTITLE7=Mark Gray - Tammy Wynette - Sometimes When We Touch
TTITLE8=Ricky Van Shelton - Brenda Lee - Sweet Memories
TTITLE9=Rodney Crowell - Rosanne Cash - It's Such A Small World
TTITLE10=Dolly Parton - Willie Nelson - Everything's Beautiful
TTITLE11=Ricky Skaggs - Sharon White - Love Can't Ever Get Better Than This
TTITLE12=Mickey Gilley - Barbi Benton - Roll You Like A Wheel
EXTD=
EXTT0=
EXTT1=
EXTT2=
EXTT3=
EXTT4=
EXTT5=
EXTT6=
EXTT7=
EXTT8=
EXTT9=
EXTT10=
EXTT11=
EXTT12=
PLAYORDER=
